<svg xmlns="http://www.w3.org/2000/svg" version="1.1" xmlns:xlink="http://www.w3.org/1999/xlink" xmlns:svgjs="http://svgjs.dev/svgjs" width="100%" height="100%" viewBox="0 0 1000 600"><rect width="1000" height="600" x="0" y="0" fill="#1d3557ff"/><g><circle r="166.66666666666666" cx="364.23058573404944" cy="386.4528471458033" fill="#e5c687ff" transform="matrix(0.6327066064085023,0,0,0.6327066064085023,0,55.48874699743429)"/><path d="M312.52604664214937 311.45285886329833L365.46165219282284 311.45285886329833Q380.70786416716703 311.45285886329833 391.9452377962903 317.0084143653368Q403.1826114254136 322.59553552363684 409.55887399025323 332.82280815238954Q415.93513655509287 343.0500807811422 415.93513655509287 357.1283634738079L415.93513655509287 357.1283634738079Q415.93513655509287 371.23821182273514 409.55887399025323 381.4654844514878Q403.1826114254136 391.6927570802405 391.9452377962903 397.2483125822789Q380.70786416716703 402.8038680843174 365.46165219282284 402.8038680843174L365.46165219282284 402.8038680843174L330.70786464882076 402.8038680843174L330.70786464882076 461.45285741833726L312.52604664214937 461.45285741833726L312.52604664214937 311.45285886329833ZM330.70786464882076 385.758413703063L362.7470057543268 385.758413703063Q380.4553389170744 385.758413703063 388.6624095450858 378.37205013785274Q396.8379145168356 370.98568657264246 396.8379145168356 357.1283634738079L396.8379145168356 357.1283634738079Q396.8379145168356 343.0500807811422 388.6624095450858 335.7584141847167Q380.4553389170744 328.4983132445528 362.7470057543268 328.4983132445528L362.7470057543268 328.4983132445528L330.70786464882076 328.4983132445528L330.70786464882076 385.758413703063Z " fill="#1d3557ff" transform="matrix(0.6327066064085023,0,0,0.6327066064085023,0,55.48874699743429)"/><path d="M614.2305909321632 322.5639752221751L651.2014899055926 322.5639752221751Q661.8496379104622 322.5639752221751 669.6979623198484 326.44404571670316Q677.5462867292347 330.34616206631375 681.999549455909 337.4890191130586Q686.4528121825833 344.6318761598034 686.4528121825833 354.4643275266189L686.4528121825833 354.4643275266189Q686.4528121825833 364.3188247485169 681.999549455909 371.4616817952617Q677.5462867292347 378.60453884200655 669.6979623198484 382.48460933653456Q661.8496379104622 386.3646798310627 651.2014899055926 386.3646798310627L651.2014899055926 386.3646798310627L626.9290034597095 386.3646798310627L626.9290034597095 427.32587857443275L614.2305909321632 427.32587857443275L614.2305909321632 322.5639752221751ZM626.9290034597095 374.4599180864879L649.3055463684935 374.4599180864879Q661.6732710698018 374.4599180864879 667.4051933912637 369.3011879971722Q673.115069857643 364.14245790785645 673.115069857643 354.4643275266189L673.115069857643 354.4643275266189Q673.115069857643 344.6318761598034 667.4051933912637 339.5392836357354Q661.6732710698018 334.4687369667498 649.3055463684935 334.4687369667498L649.3055463684935 334.4687369667498L626.9290034597095 334.4687369667498L626.9290034597095 374.4599180864879ZM755.0154214893007 397.96079960448174L755.0154214893007 376.04721965243124Q755.0154214893007 367.1627400541652 750.2535167914708 362.3346977910877Q745.4916120936409 357.48460967292766 736.7614534809528 357.48460967292766L736.7614534809528 357.48460967292766Q728.5163036800807 357.48460967292766 722.7843813586188 361.05603819630005Q717.0745048922394 364.6274667196725 714.3849105721688 372.563974549389L714.3849105721688 372.563974549389L704.0674503935373 366.2147682856158Q707.2420535254239 357.3302886873498 715.8178911525342 351.8408707717959Q724.371682924562 346.37349871132454 737.0700954521084 346.37349871132454L737.0700954521084 346.37349871132454Q745.6459330792187 346.37349871132454 752.6344691403858 349.30559743730316Q759.6230052015528 352.2376961632817 763.6573966816587 358.1900770355691Q767.7138340168472 364.14245790785645 767.7138340168472 373.51194631793845L767.7138340168472 373.51194631793845L767.7138340168472 411.9378717268158Q767.7138340168472 417.6477481931951 773.7543983094646 417.6477481931951L773.7543983094646 417.6477481931951Q776.7526346006908 417.6477481931951 779.6185957614218 416.8540974102235L779.6185957614218 416.8540974102235L778.9792659640281 426.84086976261676Q775.8046628321414 428.42817132856004 770.7341161631558 428.42817132856004L770.7341161631558 428.42817132856004Q766.1265324509038 428.42817132856004 762.4669205072012 426.6865487770389Q758.8293544185811 424.9449262255178 756.7570440408218 421.3734977021454Q754.706779518145 417.80206917877297 754.706779518145 412.40083468354925L754.706779518145 412.40083468354925L754.706779518145 410.81353311760597L757.8813826500317 411.298541929422Q755.9633932578502 417.49342720761734 751.3558095455982 421.3734977021454Q746.7702716884286 425.2535681966735 741.0383493669666 427.08337416852476Q735.3284729005874 428.9131801403761 729.7729174197858 428.9131801403761L729.7729174197858 428.9131801403761Q722.7843813586188 428.9131801403761 716.7658629210838 426.53222779146114Q710.7252986284661 424.1512754425462 707.1538701050938 419.3011873243861Q703.5824415817214 414.47314506130857 703.5824415817214 407.33028801456373L703.5824415817214 407.33028801456373Q703.5824415817214 398.4458084162978 709.5348224540087 392.6477485295882Q715.487203326296 386.8496886428787 726.1353513311657 384.77737826511935L726.1353513311657 384.77737826511935L757.5506948237935 378.60453884200655L757.5506948237935 389.0763200062158L731.9995487831229 394.30118766077914Q724.2173619389843 395.88848922672247 720.4034290097038 398.7544503874534Q716.6115419355059 401.62041154818434 716.6115419355059 406.6909582171699L716.6115419355059 406.6909582171699Q716.6115419355059 411.6071839005776 720.491612430034 414.71564946721656Q724.371682924562 417.80206917877297 731.5145399713068 417.80206917877297L731.5145399713068 417.80206917877297Q736.1221236835589 417.80206917877297 740.3328820043251 416.6115930043155Q744.5436403250915 415.421116829858 747.8725644425559 412.9519810606129Q751.2014885600203 410.50489114645035 753.1194779522018 406.77914163750006Q755.0154214893007 403.0313462734673 755.0154214893007 397.96079960448174L755.0154214893007 397.96079960448174ZM811.21030609471 427.32587857443275L798.5118935671636 427.32587857443275L798.5118935671636 347.9608002772679L809.6230045287667 347.9608002772679L810.725297282894 365.7297594737998L808.6750327602173 363.98813692227867Q811.21030609471 357.63893065850544 815.4872019807239 353.75886016397743Q819.7861437218203 349.8567438143668 825.4078367678695 348.11512126284566Q831.0515756690012 346.37349871132454 837.0700941065362 346.37349871132454L837.0700941065362 346.37349871132454Q845.6459317336465 346.37349871132454 852.6344677948135 349.6362852635413Q859.6230038559805 352.87702596067555 863.8337621767469 359.556920050687Q868.0224746424306 366.2147682856158 868.0224746424306 376.5322284642472L868.0224746424306 376.5322284642472L868.0224746424306 427.32587857443275L855.3240621148842 427.32587857443275L855.3240621148842 380.9854911909215Q855.3240621148842 367.8020698515591 849.702369068835 362.6433397622434Q844.0586301677032 357.48460967292766 835.8134803668312 357.48460967292766L835.8134803668312 357.48460967292766Q830.1036039004517 357.48460967292766 824.3716815789899 360.17420399299823Q818.6618051126105 362.8858441681514 814.9360556036602 368.90436260568634Q811.21030609471 374.94492689830395 811.21030609471 385.10806609135756L811.21030609471 385.10806609135756L811.21030609471 427.32587857443275ZM902.7887881076052 328.91318148594826L915.4872006351517 325.429936382906L915.4872006351517 405.41229862238225Q915.4872006351517 411.298541929422 918.816124752616 414.14245723507037Q922.1670947251631 417.00841839580136 927.3919623797265 417.00841839580136L927.3919623797265 417.00841839580136Q931.9995460919785 417.00841839580136 935.3284702094429 415.421116829858Q938.6573943269074 413.83381526391474 941.3690345020603 411.1442209438441L941.3690345020603 411.1442209438441L945.8002513736521 421.77032309363125Q942.1626852850321 425.09924721109564 937.1582761812941 427.0172366032771Q932.1538670775564 428.9131801403761 925.6503398282053 428.9131801403761L925.6503398282053 428.9131801403761Q919.6097755355878 428.9131801403761 914.3849078810243 426.77473219736913Q909.1379943713786 424.6362842543622 906.051574659822 419.9405171217799Q902.9431090931831 415.26679584428024 902.7887881076052 407.63892998571936L902.7887881076052 407.63892998571936L902.7887881076052 328.91318148594826ZM886.9157724481723 347.9608002772679L944.3893166483692 347.9608002772679L944.3893166483692 358.9175902532931L886.9157724481723 358.9175902532931L886.9157724481723 347.9608002772679ZM975.9589811265748 427.32587857443275L963.2605685990284 427.32587857443275L963.2605685990284 347.9608002772679L973.5780287776598 347.9608002772679L975.3416971842636 360.9678547759699Q978.6706213017279 353.6706767436472 985.0859651307488 350.03311065502714Q991.5233548148522 346.37349871132454 1000.7385222393563 346.37349871132454L1000.7385222393563 346.37349871132454Q1002.788786762033 346.37349871132454 1005.2579225312783 346.6821406824802Q1007.7050124454407 347.01282850871837 1009.4686808520445 347.9608002772679L1009.4686808520445 347.9608002772679L1007.2420494887074 359.556920050687Q1005.5004269371861 358.9175902532931 1003.4281165594269 358.58690242705495Q1001.3558061816676 358.2782604558993 997.5639191074697 358.2782604558993L997.5639191074697 358.2782604558993Q992.6256475689794 358.2782604558993 987.6432843203241 361.14422161663026Q982.6388752165861 363.98813692227867 979.3099510991218 369.7861968089882Q975.9589811265748 375.5842566956978 975.9589811265748 384.46873629396373L975.9589811265748 384.46873629396373L975.9589811265748 427.32587857443275ZM1079.6185917247053 347.9608002772679L1093.264976020801 347.9608002772679L1055.9633892211336 440.663620899373Q1052.9431070748246 448.4458077435117 1049.3716785514523 452.96520803543353Q1045.80025002808 457.4846083273555 1041.4351707217359 459.4687352847846Q1037.0700914153917 461.4528622422137 1031.3602149490125 461.4528622422137L1031.3602149490125 461.4528622422137Q1025.9589804537886 461.4528622422137 1021.4395801618668 459.9537440966006Q1016.920179869945 458.43258009590494 1013.4369347669027 455.89730676141215L1013.4369347669027 455.89730676141215L1016.920179869945 444.78619579980904Q1020.0947830018315 447.65215696054 1023.666211525204 448.9969541205753Q1027.2376400485764 450.3417512806106 1030.7208851516184 450.3417512806106L1030.7208851516184 450.3417512806106Q1034.8655059071373 450.3417512806106 1038.5030719957572 447.8064779461178Q1042.1626839394598 445.271204611625 1045.1829660857686 437.48901776748636L1045.1829660857686 437.48901776748636L1049.3055409862047 427.17155758885497L1041.369033156488 408.2782597831132L1016.1265290869734 347.9608002772679L1030.5665641660407 347.9608002772679L1050.407833740332 399.70242215600285L1055.3240594237398 413.83381526391474L1061.0559817452017 398.1151205900596L1079.6185917247053 347.9608002772679ZM1166.4351690397707 322.5639752221751L1203.4281138682825 322.5639752221751Q1214.0542160180696 322.5639752221751 1221.9245862825383 326.44404571670316Q1229.7729106919246 330.34616206631375 1234.226173418599 337.4890191130586Q1238.6573902901905 344.6318761598034 1238.6573902901905 354.4643275266189L1238.6573902901905 354.4643275266189Q1238.6573902901905 364.3188247485169 1234.226173418599 371.4616817952617Q1229.7729106919246 378.60453884200655 1221.9245862825383 382.48460933653456Q1214.0542160180696 386.3646798310627 1203.4281138682825 386.3646798310627L1203.4281138682825 386.3646798310627L1179.133581567317 386.3646798310627L1179.133581567317 427.32587857443275L1166.4351690397707 427.32587857443275L1166.4351690397707 322.5639752221751ZM1179.133581567317 374.4599180864879L1201.5321703311836 374.4599180864879Q1213.8998950324917 374.4599180864879 1219.609771498871 369.3011879971722Q1225.3416938203331 364.14245790785645 1225.3416938203331 354.4643275266189L1225.3416938203331 354.4643275266189Q1225.3416938203331 344.6318761598034 1219.609771498871 339.5392836357354Q1213.8998950324917 334.4687369667498 1201.5321703311836 334.4687369667498L1201.5321703311836 334.4687369667498L1179.133581567317 334.4687369667498L1179.133581567317 374.4599180864879ZM1307.2420454519906 397.96079960448174L1307.2420454519906 376.04721965243124Q1307.2420454519906 367.1627400541652 1302.4801407541609 362.3346977910877Q1297.718236056331 357.48460967292766 1288.9880774436429 357.48460967292766L1288.9880774436429 357.48460967292766Q1280.720881787688 357.48460967292766 1275.0110053213089 361.05603819630005Q1269.3011288549296 364.6274667196725 1266.611534534859 372.563974549389L1266.611534534859 372.563974549389L1256.2940743562272 366.2147682856158Q1259.4686774881138 357.3302886873498 1268.0224692601419 351.8408707717959Q1276.598306887252 346.37349871132454 1289.2967194147986 346.37349871132454L1289.2967194147986 346.37349871132454Q1297.8725570419087 346.37349871132454 1304.8610931030757 349.30559743730316Q1311.8496291642427 352.2376961632817 1315.8840206443488 358.1900770355691Q1319.9404579795373 364.14245790785645 1319.9404579795373 373.51194631793845L1319.9404579795373 373.51194631793845L1319.9404579795373 411.9378717268158Q1319.9404579795373 417.6477481931951 1325.9589764170723 417.6477481931951L1325.9589764170723 417.6477481931951Q1328.9792585633809 417.6477481931951 1331.8452197241118 416.8540974102235L1331.8452197241118 416.8540974102235L1331.205889926718 426.84086976261676Q1328.0312867948314 428.42817132856004 1322.9607401258459 428.42817132856004L1322.9607401258459 428.42817132856004Q1318.3531564135938 428.42817132856004 1314.693544469891 426.6865487770389Q1311.055978381271 424.9449262255178 1308.9836680035119 421.3734977021454Q1306.9113576257528 417.80206917877297 1306.9113576257528 412.40083468354925L1306.9113576257528 412.40083468354925L1306.9113576257528 410.81353311760597L1310.085960757639 411.298541929422Q1308.19001722054 417.49342720761734 1303.582433508288 421.3734977021454Q1298.9748497960359 425.2535681966735 1293.2649733296566 427.08337416852476Q1287.5550968632774 428.9131801403761 1281.9995413824759 428.9131801403761L1281.9995413824759 428.9131801403761Q1275.0110053213089 428.9131801403761 1268.9924868837738 426.53222779146114Q1262.9519225911563 424.1512754425462 1259.3804940677837 419.3011873243861Q1255.8090655444116 414.47314506130857 1255.8090655444116 407.33028801456373L1255.8090655444116 407.33028801456373Q1255.8090655444116 398.4458084162978 1261.7614464166986 392.6477485295882Q1267.713827288986 386.8496886428787 1278.3399294387732 384.77737826511935L1278.3399294387732 384.77737826511935L1309.7773187864832 378.60453884200655L1309.7773187864832 389.0763200062158L1284.226172745813 394.30118766077914Q1276.4439859016743 395.88848922672247 1272.630052972394 398.7544503874534Q1268.8161200431132 401.62041154818434 1268.8161200431132 406.6909582171699L1268.8161200431132 406.6909582171699Q1268.8161200431132 411.6071839005776 1272.718236392724 414.71564946721656Q1276.598306887252 417.80206917877297 1283.741163933997 417.80206917877297L1283.741163933997 417.80206917877297Q1288.3487476462487 417.80206917877297 1292.5595059670154 416.6115930043155Q1296.7702642877816 415.421116829858 1300.099188405246 412.9519810606129Q1303.4281125227103 410.50489114645035 1305.3240560598092 406.77914163750006Q1307.2420454519906 403.0313462734673 1307.2420454519906 397.96079960448174L1307.2420454519906 397.96079960448174ZM1350.0991877324595 311.452864260572L1362.7976002600062 311.452864260572L1362.7976002600062 407.1759670289859Q1362.7976002600062 413.1944854665209 1365.0242316233434 415.50930025018823Q1367.2288171315977 417.80206917877297 1372.167088670088 417.80206917877297L1372.167088670088 417.80206917877297Q1375.3416918019748 417.80206917877297 1377.3919563246513 417.317060366957Q1379.464266702411 416.8540974102235 1382.9475118054534 415.57543781543586L1382.9475118054534 415.57543781543586L1380.8972472827763 426.6865487770389Q1378.3399280932013 427.8108873862488 1375.3416918019748 428.3620337633124Q1372.3214096556658 428.9131801403761 1369.146806523779 428.9131801403761L1369.146806523779 428.9131801403761Q1359.4686761425419 428.9131801403761 1354.7729090099597 423.66626663073015Q1350.0991877324595 418.4413989761668 1350.0991877324595 407.63892998571936L1350.0991877324595 407.63892998571936L1350.0991877324595 311.452864260572Z " fill="#e5c687ff" transform="matrix(0.6327066064085023,0,0,0.6327066064085023,0,55.48874699743429)"/></g></svg>